<svg width="22" height="22" viewBox="0 0 22 22" fill="none" xmlns="http://www.w3.org/2000/svg">
<path d="M18.0785 7.05806C19.3638 6.83608 20.3199 5.6547 20.1824 4.27842C20.0633 3.07972 19.0909 2.11167 17.8911 1.99689C16.5029 1.8637 15.3162 2.84258 15.1137 4.14631L12.216 1.29629C12.0081 1.09272 11.6757 1.0938 11.4688 1.29846L7.9074 4.84149C7.75905 3.5984 6.65023 2.64984 5.34433 2.76137C4.20952 2.85774 3.28695 3.77815 3.18949 4.91404C3.07688 6.21778 4.01894 7.32443 5.25662 7.47928L1.43855 11.2789C1.16892 11.5475 1.16892 11.9839 1.43855 12.2524L4.51272 15.3093C3.23064 15.5215 2.27341 16.6953 2.40768 18.0662C2.52463 19.2562 3.48835 20.2199 4.67947 20.3347C6.05359 20.4668 7.22847 19.5031 7.43529 18.2145L10.2637 21.0266C10.5246 21.2854 10.9458 21.2822 11.2025 21.019L14.5712 17.5648C13.6464 17.1717 13.0216 16.2091 13.1386 15.1176C13.2555 14.0261 14.1294 13.1479 15.2176 13.0234C16.3059 12.8989 17.2479 13.4998 17.6572 14.3997L21.0411 10.9292C21.3053 10.6585 21.301 10.2243 21.0303 9.95897L18.0785 7.05806Z" stroke="#57453F" stroke-width="1.5" stroke-miterlimit="10"/>
</svg>
