<svg width="20" height="22" viewBox="0 0 20 22" fill="none" xmlns="http://www.w3.org/2000/svg">
<path d="M12.2656 17.875H13.2969C13.4336 17.875 13.5648 17.8207 13.6615 17.724C13.7582 17.6273 13.8125 17.4961 13.8125 17.3594V8.07812C13.8125 7.94137 13.7582 7.81022 13.6615 7.71352C13.5648 7.61683 13.4336 7.5625 13.2969 7.5625H12.2656C12.1289 7.5625 11.9977 7.61683 11.901 7.71352C11.8043 7.81022 11.75 7.94137 11.75 8.07812V17.3594C11.75 17.4961 11.8043 17.6273 11.901 17.724C11.9977 17.8207 12.1289 17.875 12.2656 17.875ZM19.3125 3.4375H15.7714L14.3105 1.00117C14.1272 0.695671 13.8678 0.442875 13.5577 0.267419C13.2476 0.0919627 12.8974 -0.000169443 12.5411 2.33942e-07H8.20895C7.8528 -2.10018e-05 7.50271 0.0921817 7.19278 0.267631C6.88284 0.44308 6.62362 0.695796 6.44035 1.00117L4.97856 3.4375H1.4375C1.25516 3.4375 1.0803 3.50993 0.951364 3.63886C0.822433 3.7678 0.75 3.94266 0.75 4.125L0.75 4.8125C0.75 4.99484 0.822433 5.1697 0.951364 5.29864C1.0803 5.42757 1.25516 5.5 1.4375 5.5H2.125V19.9375C2.125 20.4845 2.3423 21.0091 2.72909 21.3959C3.11589 21.7827 3.64049 22 4.1875 22H16.5625C17.1095 22 17.6341 21.7827 18.0209 21.3959C18.4077 21.0091 18.625 20.4845 18.625 19.9375V5.5H19.3125C19.4948 5.5 19.6697 5.42757 19.7986 5.29864C19.9276 5.1697 20 4.99484 20 4.8125V4.125C20 3.94266 19.9276 3.7678 19.7986 3.63886C19.6697 3.50993 19.4948 3.4375 19.3125 3.4375ZM8.13375 2.18754C8.15673 2.14929 8.18924 2.11767 8.2281 2.09575C8.26697 2.07383 8.31085 2.06237 8.35547 2.0625H12.3945C12.4391 2.06245 12.4829 2.07394 12.5217 2.09585C12.5604 2.11777 12.5929 2.14936 12.6158 2.18754L13.3661 3.4375H7.38395L8.13375 2.18754ZM16.5625 19.9375H4.1875V5.5H16.5625V19.9375ZM7.45313 17.875H8.48438C8.62113 17.875 8.75228 17.8207 8.84898 17.724C8.94568 17.6273 9 17.4961 9 17.3594V8.07812C9 7.94137 8.94568 7.81022 8.84898 7.71352C8.75228 7.61683 8.62113 7.5625 8.48438 7.5625H7.45313C7.31637 7.5625 7.18522 7.61683 7.08852 7.71352C6.99183 7.81022 6.9375 7.94137 6.9375 8.07812V17.3594C6.9375 17.4961 6.99183 17.6273 7.08852 17.724C7.18522 17.8207 7.31637 17.875 7.45313 17.875Z" fill="#717171"/>
</svg>
