<svg width="21" height="20" viewBox="0 0 21 20" fill="none" xmlns="http://www.w3.org/2000/svg">
<path d="M15.3151 13.1532C13.7926 13.1532 13.5301 13.097 12.6076 13.4082C11.9513 13.6295 11.2463 13.7532 10.5151 13.7532C9.78385 13.7532 9.07885 13.6295 8.4226 13.4082C7.5001 13.097 7.24135 13.1532 5.7151 13.1532C3.06385 13.1532 0.9151 15.302 0.9151 17.9532L0.9151 18.5532C0.9151 19.217 1.45135 19.7532 2.1151 19.7532L18.9151 19.7532C19.5788 19.7532 20.1151 19.217 20.1151 18.5532L20.1151 17.9532C20.1151 15.302 17.9663 13.1532 15.3151 13.1532ZM18.3151 17.9532L2.7151 17.9532C2.7151 17.1507 3.02635 16.397 3.5926 15.8307C4.15885 15.2645 4.9126 14.9532 5.7151 14.9532C7.25635 14.9532 7.2526 14.912 7.8451 15.1107C8.7076 15.4032 9.6076 15.5532 10.5151 15.5532C11.4226 15.5532 12.3226 15.4032 13.1851 15.1107C13.7776 14.9082 13.7738 14.9532 15.3151 14.9532C16.9688 14.9532 18.3151 16.2995 18.3151 17.9532ZM10.5151 12.5532C13.8301 12.5532 16.5151 9.86822 16.5151 6.55322C16.5151 3.23822 13.8301 0.553223 10.5151 0.553223C7.2001 0.553223 4.5151 3.23822 4.5151 6.55322C4.5151 9.86822 7.2001 12.5532 10.5151 12.5532ZM10.5151 2.35322C12.8326 2.35322 14.7151 4.23572 14.7151 6.55322C14.7151 8.87072 12.8326 10.7532 10.5151 10.7532C8.1976 10.7532 6.3151 8.87072 6.3151 6.55322C6.3151 4.23572 8.1976 2.35322 10.5151 2.35322Z" fill="#717171"/>
</svg>
