<svg width="23" height="22" viewBox="0 0 23 22" fill="none" xmlns="http://www.w3.org/2000/svg">
<path d="M11.5151 13.8383C12.9611 13.8383 14.1333 12.6661 14.1333 11.2201C14.1333 9.77414 12.9611 8.60194 11.5151 8.60194C10.0691 8.60194 8.89692 9.77414 8.89692 11.2201C8.89692 12.6661 10.0691 13.8383 11.5151 13.8383Z" stroke="#717171" stroke-width="2" stroke-linecap="round" stroke-linejoin="round"/>
<path d="M17.9733 13.8383C17.8571 14.1015 17.8225 14.3935 17.8738 14.6766C17.9251 14.9597 18.0601 15.221 18.2613 15.4267L18.3136 15.479C18.4759 15.6411 18.6047 15.8336 18.6925 16.0455C18.7804 16.2574 18.8256 16.4846 18.8256 16.7139C18.8256 16.9433 18.7804 17.1704 18.6925 17.3823C18.6047 17.5942 18.4759 17.7867 18.3136 17.9488C18.1515 18.1111 17.959 18.2399 17.7471 18.3277C17.5352 18.4156 17.3081 18.4608 17.0787 18.4608C16.8494 18.4608 16.6222 18.4156 16.4103 18.3277C16.1984 18.2399 16.0059 18.1111 15.8438 17.9488L15.7915 17.8965C15.5858 17.6953 15.3245 17.5603 15.0414 17.509C14.7583 17.4577 14.4663 17.4923 14.2031 17.6085C13.945 17.7191 13.7248 17.9028 13.5698 18.1369C13.4147 18.3711 13.3315 18.6455 13.3304 18.9263L13.3304 19.0747C13.3304 19.5376 13.1465 19.9816 12.8191 20.3089C12.4918 20.6362 12.0478 20.8201 11.5849 20.8201C11.122 20.8201 10.678 20.6362 10.3507 20.3089C10.0234 19.9816 9.83946 19.5376 9.83946 19.0747L9.83946 18.9961C9.83271 18.7073 9.7392 18.4271 9.57111 18.1921C9.40302 17.9571 9.16811 17.778 8.89692 17.6783C8.63369 17.5621 8.3417 17.5275 8.05859 17.5788C7.77548 17.6301 7.51424 17.7651 7.30855 17.9663L7.25619 18.0187C7.09409 18.181 6.90158 18.3097 6.68969 18.3975C6.47779 18.4854 6.25066 18.5306 6.02128 18.5306C5.7919 18.5306 5.56477 18.4854 5.35288 18.3975C5.14098 18.3097 4.94848 18.181 4.78637 18.0187C4.62409 17.8566 4.49534 17.6641 4.40751 17.4522C4.31967 17.2403 4.27445 17.0131 4.27445 16.7838C4.27445 16.5544 4.31967 16.3272 4.40751 16.1153C4.49534 15.9035 4.62409 15.711 4.78637 15.5488L4.83874 15.4965C5.03993 15.2908 5.1749 15.0296 5.22623 14.7464C5.27756 14.4633 5.24291 14.1713 5.12674 13.9081C5.01611 13.65 4.83241 13.4298 4.59827 13.2748C4.36413 13.1197 4.08975 13.0365 3.80892 13.0354L3.66055 13.0354C3.19763 13.0354 2.75367 12.8515 2.42633 12.5242C2.099 12.1968 1.9151 11.7529 1.9151 11.2899C1.9151 10.827 2.099 10.383 2.42633 10.0557C2.75367 9.72838 3.19763 9.54448 3.66055 9.54448L3.7391 9.54448C4.02797 9.53772 4.30812 9.44422 4.54314 9.27613C4.77816 9.10803 4.95718 8.87312 5.05692 8.60194C5.17309 8.33871 5.20775 8.04671 5.15641 7.7636C5.10508 7.4805 4.97011 7.21926 4.76892 7.01357L4.71655 6.96121C4.55427 6.7991 4.42553 6.6066 4.33769 6.3947C4.24985 6.18281 4.20464 5.95568 4.20464 5.7263C4.20464 5.49692 4.24985 5.26979 4.33769 5.05789C4.42553 4.846 4.55427 4.6535 4.71655 4.49139C4.87866 4.3291 5.07116 4.20036 5.28306 4.11252C5.49495 4.02468 5.72208 3.97947 5.95146 3.97947C6.18084 3.97947 6.40797 4.02468 6.61987 4.11252C6.83176 4.20036 7.02427 4.3291 7.18637 4.49139L7.23874 4.54375C7.44442 4.74495 7.70566 4.87992 7.98877 4.93125C8.27188 4.98258 8.56387 4.94793 8.8271 4.83175L8.89692 4.83175C9.15504 4.72112 9.37519 4.53743 9.53025 4.30329C9.68531 4.06914 9.76853 3.79477 9.76965 3.51394L9.76965 3.36557C9.76965 2.90265 9.95354 2.45869 10.2809 2.13135C10.6082 1.80401 11.0522 1.62012 11.5151 1.62012C11.978 1.62012 12.422 1.80401 12.7493 2.13135C13.0767 2.45869 13.2606 2.90265 13.2606 3.36557L13.2606 3.44412C13.2617 3.72495 13.3449 3.99933 13.5 4.23347C13.655 4.46761 13.8752 4.65131 14.1333 4.76194C14.3965 4.87811 14.6885 4.91276 14.9716 4.86143C15.2547 4.8101 15.516 4.67513 15.7216 4.47394L15.774 4.42157C15.9361 4.25929 16.1286 4.13054 16.3405 4.0427C16.5524 3.95487 16.7795 3.90965 17.0089 3.90965C17.2383 3.90965 17.4654 3.95487 17.6773 4.0427C17.8892 4.13054 18.0817 4.25929 18.2438 4.42157C18.4061 4.58368 18.5349 4.77618 18.6227 4.98808C18.7105 5.19997 18.7557 5.4271 18.7557 5.65648C18.7557 5.88586 18.7105 6.11299 18.6227 6.32489C18.5349 6.53678 18.4061 6.72928 18.2438 6.89139L18.1915 6.94375C17.9903 7.14944 17.8553 7.41068 17.804 7.69379C17.7526 7.97689 17.7873 8.26889 17.9035 8.53212L17.9035 8.60194C18.0141 8.86006 18.1978 9.08021 18.4319 9.23527C18.6661 9.39033 18.9405 9.47354 19.2213 9.47466L19.3696 9.47466C19.8326 9.47466 20.2765 9.65856 20.6039 9.9859C20.9312 10.3132 21.1151 10.7572 21.1151 11.2201C21.1151 11.683 20.9312 12.127 20.6039 12.4543C20.2765 12.7817 19.8326 12.9656 19.3696 12.9656L19.2911 12.9656C19.0103 12.9667 18.7359 13.0499 18.5018 13.205C18.2676 13.36 18.0839 13.5802 17.9733 13.8383Z" stroke="#717171" stroke-width="2" stroke-linecap="round" stroke-linejoin="round"/>
</svg>
