<svg width="23" height="19" viewBox="0 0 23 19" fill="none" xmlns="http://www.w3.org/2000/svg">
<path d="M15.733 17.5983L15.733 15.7801C15.733 14.8157 15.3498 13.8908 14.6679 13.2088C13.9859 12.5269 13.061 12.1438 12.0966 12.1438L4.82386 12.1438C3.85944 12.1438 2.93452 12.5269 2.25257 13.2088C1.57062 13.8908 1.1875 14.8157 1.1875 15.7801L1.1875 17.5983M21.1875 17.5983L21.1875 15.7801C21.1869 14.9744 20.9187 14.1917 20.4251 13.555C19.9315 12.9182 19.2403 12.4634 18.4602 12.262M14.8239 1.35286C15.6061 1.55314 16.2994 2.00804 16.7944 2.64587C17.2895 3.2837 17.5583 4.06816 17.5583 4.87559C17.5583 5.68302 17.2895 6.46748 16.7944 7.10531C16.2994 7.74313 15.6061 8.19804 14.8239 8.39832M12.0966 4.87104C12.0966 6.87935 10.4685 8.50741 8.46023 8.50741C6.45192 8.50741 4.82386 6.87935 4.82386 4.87104C4.82386 2.86274 6.45192 1.23468 8.46023 1.23468C10.4685 1.23468 12.0966 2.86274 12.0966 4.87104Z" stroke="#57453F" stroke-width="2" stroke-linecap="round" stroke-linejoin="round"/>
</svg>
