<svg width="25" height="18" viewBox="0 0 25 18" fill="none" xmlns="http://www.w3.org/2000/svg">
<path d="M20.8888 6.94291C20.7388 4.76791 18.9275 3.03916 16.7 3.03916C16.415 3.03916 16.1338 3.06916 15.86 3.12541C14.6638 1.62541 12.8038 0.63916 10.7 0.63916C7.5275 0.63916 4.86875 2.87791 4.23875 5.88166C1.99625 6.79291 0.5 8.97916 0.5 11.4392C0.5 14.7542 3.185 17.4392 6.5 17.4392H19.1C22.0813 17.4392 24.5 15.0204 24.5 12.0392C24.5 9.72166 23.03 7.69666 20.8888 6.94291ZM19.1 15.6392H6.5C4.17875 15.6392 2.3 13.7604 2.3 11.4392C2.3 9.32416 3.86375 7.57291 5.9 7.28041V7.23916C5.9 4.58791 8.04875 2.43916 10.7 2.43916C12.7063 2.43916 14.4237 3.66916 15.14 5.41666C15.56 5.05666 16.1038 4.83916 16.7 4.83916C18.0238 4.83916 19.1 5.91541 19.1 7.23916C19.1 7.68166 18.98 8.09791 18.77 8.45416C18.8788 8.44291 18.9913 8.43916 19.1 8.43916C21.0875 8.43916 22.7 10.0517 22.7 12.0392C22.7 14.0267 21.0875 15.6392 19.1 15.6392ZM11.6188 5.08291C11.4425 4.90666 11.1575 4.90666 10.9813 5.08291L7.08125 8.98291C6.905 9.15916 6.905 9.44416 7.08125 9.62041L7.715 10.2542C7.89125 10.4304 8.18 10.4304 8.35625 10.2504L10.4 8.15791V13.3892C10.4 13.6367 10.6025 13.8392 10.85 13.8392H11.75C11.9975 13.8392 12.2 13.6367 12.2 13.3892V8.15791L14.2438 10.2504C14.42 10.4304 14.705 10.4304 14.885 10.2542L15.5188 9.62041C15.695 9.44416 15.695 9.15916 15.5188 8.98291L11.6188 5.08291Z" fill="white"/>
</svg>
